<svg xmlns="http://www.w3.org/2000/svg" viewBox="0 0 207.394 207.394" width="207.39" height="207.39"><path d="M197.517 1.768A7.509 7.509 0 0 0 191.42.105l-117.473 20a7.5 7.5 0 0 0-6.241 7.393V131.9H44.961c-20.814 0-37.746 16.933-37.746 37.746 0 20.813 16.933 37.746 37.746 37.746 20.812 0 37.745-16.933 37.745-37.746V77.897L185.179 60.45v51.451h-22.746c-20.814 0-37.747 16.933-37.747 37.746 0 20.813 16.933 37.746 37.747 37.746 20.813 0 37.746-16.933 37.746-37.746V7.499a7.5 7.5 0 0 0-2.662-5.731zM44.961 192.394c-12.543 0-22.746-10.204-22.746-22.746 0-12.543 10.204-22.746 22.746-22.746h22.745v22.746c0 12.542-10.203 22.746-22.745 22.746zM82.706 33.83l102.473-17.446v28.851L82.706 62.681V33.83zm79.727 138.564c-12.543 0-22.747-10.204-22.747-22.746 0-12.543 10.204-22.746 22.747-22.746h22.746v22.746c0 12.542-10.204 22.746-22.746 22.746z"/></svg>