<svg height="512" width="512" xmlns="http://www.w3.org/2000/svg" viewBox="0 0 512 512"><path d="M215.4 268.4c-4.3-1.5-13.5-2.3-27.8-2.3h-19.5c-.6 0-1 .5-1 1v40.1c0 .6.4 1 1 1h23.2c11.3 0 18.4-.3 21.5-1 4.7-.9 8.4-3 11.4-6.3 2.9-3.3 4.4-7.8 4.4-13.4 0-4.7-1.1-8.7-3.4-12-2.3-3.2-5.5-5.6-9.8-7.1zM326 237c-6.9 0-12.6 2.4-17.1 7.3-4.3 4.7-6.2 9.2-6.6 15.7 0 .6.5 1.2 1.2 1.2h44.9c.7 0 1.2-.6 1.2-1.2 0-5.9-2.8-11.7-7.1-16.1-4.6-4.6-10-6.9-16.5-6.9zm-157.9 2.9h14.7c12.2 0 19.8-.2 22.8-.5 5.4-.6 9.6-2.5 12.6-5.6 3.1-3.1 4.6-7.2 4.6-12.3 0-4.9-1.3-8.8-4-11.9-2.6-3-6.6-4.9-11.8-5.5-3.1-.4-12-.5-26.8-.5H168c-.6 0-1 .5-1 1V239c.1.4.6.9 1.1.9z"/><path d="M256 31C131.7 31 31 131.7 31 256s100.7 225 225 225 225-100.7 225-225S380.3 31 256 31zm37.9 155.7c0-2.5 2.1-4.6 4.6-4.6h53.2c2.5 0 4.6 2.1 4.6 4.6v7.7c0 2.5-2.1 4.6-4.6 4.6h-53.2c-2.5 0-4.6-2.1-4.6-4.6zM256 310c-3.3 6.8-7.8 12.2-13.4 16.2-5.7 4.1-12.7 6.5-21 7.5-5.2.6-17.8.9-33 1.1h-51.8c-5.4 0-5.8-.5-5.8-1V178.2c0-.6.4-1 5.8-1h61c7.5 0 16.6.5 22.7 1.6 6 1 11.4 3.2 16.2 6.5s8.7 7.7 11.9 13.2 4.8 11.6 4.8 18.4c0 7.4-2 14.2-5.9 20.3-3.5 5.5-8.1 9.7-13.7 12.8-.8.4-.7 1.6.1 1.8 8.3 2.9 14.8 7.4 19.5 13.5 5.1 6.7 7.6 14.7 7.6 23.8-.1 7.2-1.7 14.1-5 20.9zm125-28.2c0 .6-.5 1.2-1.2 1.2h-76.9c-.7 0-1.2.6-1.2 1.2.4 8.5 2.9 13.8 7.6 18.6 4.9 5.1 10.9 6.5 18.2 6.5 6.7 0 17-2 20-13.2.1-.5.7-.9 1.3-.8l29.2.3c.7.1 1 .8.9 1.6-.4 9.9-10.4 23.1-18.8 28.7-8.7 5.9-19.7 8.8-32.8 8.8-20.8 0-36.2-6.6-46.2-19.8-7.9-10.6-11.8-23.9-11.8-40 0-19.2 5.2-34.3 15.5-45.2 10.4-10.9 23.5-16.3 39.3-16.3 17.8 0 31.8 5.7 42.1 17.1 10 11.2 15.1 20.6 14.8 51.3z"/></svg>