<svg version="1.0" xmlns="http://www.w3.org/2000/svg" width="682.667" height="682.667" viewBox="0 0 512 512"><g fill="currentColor"><path d="M6.6 47.9C2 51 0 54.8 0 61c0 6.2 2 10 6.6 13.1 2.7 1.8 5.3 1.9 37.6 1.9h34.7l1.5 5.2c.9 2.9 17.1 61.3 36.1 129.8 18.9 68.5 35.2 126 36.2 127.8.9 1.8 3.1 4.1 4.8 5.2 3.2 2 5.5 2 143.5 2s140.3 0 143.5-2c1.7-1.1 3.9-3.4 4.9-5.2.9-1.8 15.4-50.6 32.1-108.4 21.5-74.1 30.5-106.6 30.5-110 0-5.3-2-9.3-6.1-12.2-2.2-1.6-16-1.7-194.4-2.2l-192-.5-7.1-25.7c-3.9-14.1-7.9-26.6-8.7-27.8-.9-1.3-2.9-3.1-4.4-4.1C96.7 46.1 93.6 46 53 46c-40.9 0-43.7.1-46.4 1.9zM476 136.7c0 .5-11.6 40.8-25.9 89.8l-25.8 89-123.1.3-123.1.2-1.5-5.2c-.9-2.9-11.9-42.7-24.6-88.3-12.7-45.7-23.3-83.8-23.6-84.8-.5-1.6 8.2-1.7 173.5-1.7 95.8 0 174.1.3 174.1.7z"/><path d="M187.6 197.9c-4.6 3.1-6.6 6.9-6.6 13.1 0 6.2 2 10 6.6 13.1 2.8 1.8 6.8 1.9 113.4 1.9 106.6 0 110.6-.1 113.4-1.9 4.6-3.1 6.6-6.9 6.6-13.1 0-6.2-2-10-6.6-13.1-2.8-1.8-6.8-1.9-113.4-1.9-106.6 0-110.6.1-113.4 1.9zm30 60c-4.6 3.1-6.6 6.9-6.6 13.1 0 6.2 2 10 6.6 13.1 2.8 1.8 6.2 1.9 83.4 1.9s80.6-.1 83.4-1.9c4.6-3.1 6.6-6.9 6.6-13.1 0-6.2-2-10-6.6-13.1-2.8-1.8-6.2-1.9-83.4-1.9s-80.6.1-83.4 1.9zm-21.5 120c-12 4.5-20.7 12.4-26.4 24-3.1 6.4-3.2 7.1-3.2 19.1 0 12 .1 12.7 3.2 19.1 5.8 11.8 14.6 19.7 26.9 24 4.9 1.7 7.7 2 16.4 1.7 9.5-.3 11.2-.7 17.5-3.8 9.2-4.4 17.1-12.3 21.6-21.5 3.3-6.8 3.4-7.3 3.4-19.5s-.1-12.7-3.4-19.5c-4.5-9.2-12.4-17.1-21.6-21.5-6.5-3.2-7.9-3.5-18-3.7-9-.3-12 0-16.4 1.6zm22.3 31c4.3 2.9 6.6 7 6.6 12.1 0 8-6 14-14 14s-14-6-14-14 6-14 14-14c2.7 0 5.6.8 7.4 1.9zm157.7-31c-12 4.5-20.7 12.4-26.4 24-3.1 6.4-3.2 7.1-3.2 19.1 0 12 .1 12.7 3.2 19.1 5.8 11.8 14.6 19.7 26.9 24 4.9 1.7 7.7 2 16.4 1.7 9.5-.3 11.2-.7 17.5-3.8 9.2-4.4 17.1-12.3 21.6-21.5 3.3-6.8 3.4-7.3 3.4-19.5s-.1-12.7-3.4-19.5c-4.5-9.2-12.4-17.1-21.6-21.5-6.5-3.2-7.9-3.5-18-3.7-9-.3-12 0-16.4 1.6zm22.3 31c4.3 2.9 6.6 7 6.6 12.1 0 8-6 14-14 14s-14-6-14-14 6-14 14-14c2.7 0 5.6.8 7.4 1.9z"/></g></svg>