<svg height="512" viewBox="0 0 512 512" width="512" xmlns="http://www.w3.org/2000/svg"><path d="M512 256c0 141.387-114.613 256-256 256S0 397.387 0 256 114.613 0 256 0s256 114.613 256 256zm0 0"/><path d="M508.586 297.781 411 200.195 256 97.316l-155 102.88v112.046l196.406 196.406c108.086-17.582 193.442-102.832 211.18-210.867zm0 0" fill="#171719"/><path d="m256 97.316-155 102.88v112.046L256 414.68l155-102.438V200.195zm-12.496 181.54-34.188-22.876 34.188-23.054zm24.992-45.93 34.188 23.054-34.188 22.875zm0-30.145v-67.176l107.477 71.336-50.852 34.028zm-24.992 0-56.625 38.188-50.852-34.028 107.477-71.336zm-79.008 53.278-38.504 25.968v-51.734zm22.438 15.011 56.57 37.856v67.543L136 305.418zm81.562 37.856 56.57-37.856L376 305.418l-107.504 71.05zm79.008-52.867 38.504-25.766v51.734zm0 0" fill="#fff"/><path d="M256 97.32v317.36l155-102.442V200.2zm12.492 38.29 107.48 71.331-50.855 34.028-56.625-38.188zm0 97.312 34.192 23.058-34.192 22.872zm0 143.55v-67.546l56.574-37.856 50.938 34.344zm117.516-94.449-38.508-25.96 38.508-25.77zm0 0" fill="#fff"/></svg>