<svg width="35" height="35" xmlns="http://www.w3.org/2000/svg" xmlns:xlink="http://www.w3.org/1999/xlink" viewBox="0 0 35 35"><defs><filter x="-79.7%" y="-532.4%" width="259.4%" height="1164.7%" filterUnits="objectBoundingBox" id="ava"><feOffset in="SourceAlpha" result="shadowOffsetOuter1"/><feGaussianBlur stdDeviation="5" in="shadowOffsetOuter1" result="shadowBlurOuter1"/><feColorMatrix values="0 0 0 0 0 0 0 0 0 0.49256993 0 0 0 0 1 0 0 0 1 0" in="shadowBlurOuter1"/></filter><filter x="-79.7%" y="-532.4%" width="259.4%" height="1164.7%" filterUnits="objectBoundingBox" id="avc"><feOffset in="SourceAlpha" result="shadowOffsetOuter1"/><feGaussianBlur stdDeviation="5" in="shadowOffsetOuter1" result="shadowBlurOuter1"/><feColorMatrix values="0 0 0 0 0 0 0 0 0 0.494117647 0 0 0 0 1 0 0 0 1 0" in="shadowBlurOuter1"/></filter><filter x="-78.8%" y="-500%" width="257.7%" height="1100%" filterUnits="objectBoundingBox" id="ave"><feOffset in="SourceAlpha" result="shadowOffsetOuter1"/><feGaussianBlur stdDeviation="5" in="shadowOffsetOuter1" result="shadowBlurOuter1"/><feColorMatrix values="0 0 0 0 0 0 0 0 0 0.494117647 0 0 0 0 1 0 0 0 1 0" in="shadowBlurOuter1"/></filter><path d="m10.301 7.616 4.526.011a7.22 7.22 0 0 1 4.26 1.403.77.77 0 0 1-.46 1.392l-12.119-.029A.772.772 0 0 1 6.054 9a7.16 7.16 0 0 1 4.247-1.383z" id="avb"/><path d="m3.18 7.587 4.526-.01a7.147 7.147 0 0 1 4.242 1.383.772.772 0 0 1-.454 1.394l-12.12.028a.77.77 0 0 1-.458-1.392A7.233 7.233 0 0 1 3.18 7.587z" id="avd"/><path d="M6.575.857h4.46c1.577 0 3.108.528 4.35 1.5a.84.84 0 0 1-.517 1.5H2.738a.839.839 0 0 1-.517-1.5 7.072 7.072 0 0 1 4.354-1.5z" id="avf"/></defs><g fill="none" fill-rule="evenodd"><g transform="rotate(-80 23.079 7.935)"><use fill="#000" filter="url(#ava)" xlink:href="#avb"/><use fill="#FFF" xlink:href="#avb"/></g><g transform="rotate(40 -5.832 28.895)"><use fill="#000" filter="url(#avc)" xlink:href="#avd"/><use fill="#FFF" xlink:href="#avd"/></g><g transform="rotate(160 11.668 8.607)"><use fill="#000" filter="url(#ave)" xlink:href="#avf"/><use fill="#FFF" xlink:href="#avf"/></g></g></svg>