<svg xmlns="http://www.w3.org/2000/svg" viewBox="0 0 152 152" width="512" height="512"><g data-name="Layer 2"><path data-name="24.DeviantArt" d="M76 0a76 76 0 1 0 76 76A76 76 0 0 0 76 0zm25 101a1.67 1.67 0 0 1-1.67 1.67H72l-6.21 12.41a1.67 1.67 0 0 1-1.49.92H52.67a1.67 1.67 0 0 1-1.67-1.67v-10a1.56 1.56 0 0 1 .21-.79L68 72.67H52.67A1.67 1.67 0 0 1 51 71V51a1.67 1.67 0 0 1 1.67-1.67H80l6.21-12.41a1.67 1.67 0 0 1 1.46-.92h11.66a1.67 1.67 0 0 1 1.67 1.67v10a1.68 1.68 0 0 1-.2.79L84 79.33h15.33A1.67 1.67 0 0 1 101 81z"/></g></svg>