<svg height="512" viewBox="0 0 176 176" width="512" xmlns="http://www.w3.org/2000/svg"><g data-name="Layer 2"><g data-name="18.dribbble"><path d="M44.27 77.82a44.92 44.92 0 0 1 22.21-29.09 136.93 136.93 0 0 1 17.73 24.7 69.06 69.06 0 0 1-39.94 4.39zM55 118.35A44.68 44.68 0 0 1 43 88a102.94 102.94 0 0 0 14 1.2 78.77 78.77 0 0 0 31.84-6.84c1.26 2.64 2.38 5.23 3.46 8A78.78 78.78 0 0 0 55 118.35zM95.63 99.7a137.44 137.44 0 0 1 6 30.94A43.18 43.18 0 0 1 62.48 125a68.88 68.88 0 0 1 33.15-25.3zm-2.49-30.81a145.13 145.13 0 0 0-16.93-24.12 43.5 43.5 0 0 1 36.66 5.76 69.65 69.65 0 0 1-19.73 18.36zM132.06 97a45.09 45.09 0 0 1-20.89 29.35A146.81 146.81 0 0 0 105.25 97a68.73 68.73 0 0 1 26.81 0zm-11.52-39.92A44.93 44.93 0 0 1 132.89 87a79.24 79.24 0 0 0-31 .44c-1.27-3.27-2.63-6.49-4.15-9.67a79.52 79.52 0 0 0 22.8-20.69z"/><path d="M88 0a88 88 0 1 0 88 88A88 88 0 0 0 88 0zm0 143a55 55 0 1 1 55-55 55.07 55.07 0 0 1-55 55z"/></g></g></svg>