<svg xmlns="http://www.w3.org/2000/svg" viewBox="0 0 176 176" width="512" height="512"><g data-name="Layer 2"><path d="M88 0a88 88 0 1 0 88 88A88 88 0 0 0 88 0zm48.5 111.45-4.31 28.86a3.16 3.16 0 0 1-3.13 2.69H41.67a2.18 2.18 0 0 1-2.18-2.18v-4.91a2.18 2.18 0 0 1 2.18-2.18h5.54a7.73 7.73 0 0 0 7.73-7.73V50a7.73 7.73 0 0 0-7.73-7.73h-5.54a2.17 2.17 0 0 1-2.18-2.18v-4.91A2.18 2.18 0 0 1 41.67 33h86.7a3.16 3.16 0 0 1 3.15 3.41l-2.11 26.44a1.36 1.36 0 0 1-1.36 1.26h-5a1.37 1.37 0 0 1-1.37-1.37v-7.69a12.78 12.78 0 0 0-12.77-12.78H81.62A7.73 7.73 0 0 0 73.89 50v32.45H94.7a9.89 9.89 0 0 0 9.89-9.89v-4A1.37 1.37 0 0 1 106 67.2h4.27a1.37 1.37 0 0 1 1.37 1.37V106a1.37 1.37 0 0 1-1.37 1.36H106a1.36 1.36 0 0 1-1.37-1.36v-2.55a9.89 9.89 0 0 0-9.89-9.89H73.89V126a7.73 7.73 0 0 0 7.73 7.73h28.74a15.38 15.38 0 0 0 14.69-10.82l3.76-12.07a1.37 1.37 0 0 1 1.31-1h5a1.37 1.37 0 0 1 1.38 1.61z" data-name="42.etsy"/></g></svg>