<svg height="512" viewBox="0 0 152 152" width="512" xmlns="http://www.w3.org/2000/svg"><g data-name="Layer 2"><g data-name="69.goodreads"><path d="M93 61.19c1.15 8.46-1 17.93-8 22.86-5 3.52-11.79 3.21-15.82 1.29C60.91 81.42 58.15 72 58.75 63.28c1-13.82 9.13-19.94 16.8-19.86C86 43.37 91.6 50.63 93 61.19z"/><path d="M76 0a76 76 0 1 0 76 76A76 76 0 0 0 76 0zm8.71 113c-10.15 2.51-23.22.71-28.63-8.49a15.08 15.08 0 0 1-1.9-6.61h5.99c.23 0 .45-.06.53.31 1 5.18 4.38 8.1 9.18 9.49a23.75 23.75 0 0 0 11.87.26c4.94-1.1 8.18-4.2 9.94-9a29.6 29.6 0 0 0 1.61-9.87v-7.84h-.13l-.37.65a17.8 17.8 0 0 1-15.42 10.24c-15 .6-24.74-8.46-25.12-26.16a35 35 0 0 1 1.21-10.34C56.48 45.08 64.36 38.09 76 38a18.58 18.58 0 0 1 17 10.43c.07.17.19.35.35.29v-9.15h6.47v49.32c-.08 11.65-3.97 21.33-15.11 24.11z"/></g></g></svg>