<svg xmlns="http://www.w3.org/2000/svg" width="512" height="512" viewBox="0 0 512 512"><path d="M482.741 130.696H29.252C13.123 130.696 0 143.826 0 159.968v192.065c0 16.141 13.123 29.271 29.252 29.271h453.489c16.134 0 29.259-13.13 29.259-29.271V159.968c0-16.142-13.125-29.272-29.259-29.272zm0 5.182c13.32 0 24.08 10.772 24.08 24.09v192.065c0 13.325-10.76 24.09-24.08 24.09H29.252c-13.311 0-24.075-10.765-24.075-24.09V159.968c0-13.318 10.765-24.09 24.075-24.09h453.489z" fill-rule="evenodd" clip-rule="evenodd"/><path fill-rule="evenodd" clip-rule="evenodd" d="M73.722 183.768h37.885v146.165H73.722zm118.755 0-8.779 68.302-5.384-37.125c-1.627-11.9-3.113-22.319-4.602-31.177h-49.145v146.165h33.213l.141-96.494 13.951 96.494h23.652l13.311-98.618.073 98.618h33.135V183.768h-49.566zm108.844 26.36c1.481.853 2.478 2.2 2.906 4.109.421 1.842.636 6.09.636 12.682v56.602c0 9.783-.636 15.734-1.915 17.934-1.274 2.192-4.599 3.252-10.056 3.252v-95.922c4.108.001 6.936.422 8.429 1.343zm-.358 119.805c9.065 0 15.864-.497 20.399-1.488 4.453-.989 8.285-2.689 11.327-5.242 3.043-2.485 5.242-5.951 6.446-10.343 1.272-4.395 1.978-13.174 1.978-26.285v-51.296c0-13.817-.568-23.094-1.342-27.842-.85-4.677-2.974-9.001-6.375-12.818-3.328-3.834-8.285-6.594-14.731-8.29-6.446-1.703-17.067-2.56-35.405-2.56h-28.258v146.165h45.961zm102.404-35.423c0 7.013-.361 11.547-1.067 13.386-.704 1.849-3.754 2.76-6.092 2.76-2.26 0-3.754-.843-4.529-2.682-.704-1.773-1.133-5.883-1.133-12.331v-38.611c0-6.665.351-10.775.994-12.475.707-1.627 2.192-2.477 4.385-2.477 2.339 0 5.45.996 6.239 2.836.775 1.91 1.203 5.951 1.203 12.117v37.477zm-49.364-110.742v146.165h34.136l2.407-9.284c3.043 3.756 6.444 6.516 10.193 8.434 3.761 1.839 9.281 2.76 13.595 2.76 5.954 0 11.189-1.557 15.51-4.746 4.392-3.113 7.16-6.872 8.292-11.125 1.203-4.319 1.771-10.836 1.771-19.554v-41.013c0-8.854-.146-14.599-.568-17.288-1.051-6.71-5.737-12.27-11.903-14.885-3.754-1.557-8.068-2.339-13.104-2.339-4.314 0-9.91.86-13.664 2.631-3.681 1.695-7.082 4.317-10.124 7.79v-47.547h-36.541z"/></svg>