<svg height="512" viewBox="0 0 512.599 512.599" width="512" xmlns="http://www.w3.org/2000/svg"><path d="M457.21 512.599H55.389C24.799 512.599 0 487.8 0 457.21V55.389C0 24.799 24.799 0 55.389 0H457.21c30.59 0 55.389 24.799 55.389 55.389v401.82c0 30.591-24.799 55.39-55.389 55.39z"/><path clip-rule="evenodd" d="M418.408 166H92.688c-11.585 0-21.01 9.431-21.01 21.024v137.951c0 11.593 9.425 21.024 21.01 21.024h325.72c11.588 0 21.016-9.431 21.016-21.024V187.024c0-11.593-9.427-21.024-21.016-21.024zm0 3.722c9.567 0 17.296 7.737 17.296 17.303v137.951c0 9.571-7.728 17.303-17.296 17.303H92.688c-9.56 0-17.292-7.732-17.292-17.303V187.024c0-9.566 7.732-17.303 17.292-17.303h325.72z" fill="#fff" fill-rule="evenodd"/><path d="M124.629 204.119h27.211v104.984h-27.211zm85.296 0-6.306 49.058-3.867-26.665c-1.169-8.547-2.236-16.031-3.305-22.393h-35.298v104.984h23.855l.101-69.307 10.021 69.307h16.988l9.56-70.833.052 70.833h23.799V204.119zm78.178 18.933c1.064.612 1.78 1.58 2.087 2.952.303 1.323.457 4.374.457 9.109v40.654c0 7.027-.457 11.301-1.375 12.881-.915 1.575-3.303 2.336-7.223 2.336v-68.896c2.95 0 4.982.303 6.054.964zm-.257 86.051c6.511 0 11.394-.357 14.652-1.069 3.199-.71 5.951-1.932 8.136-3.765 2.186-1.784 3.765-4.274 4.63-7.429.913-3.157 1.421-9.462 1.421-18.879v-36.844c0-9.924-.408-16.587-.964-19.997-.611-3.359-2.136-6.465-4.579-9.207-2.39-2.754-5.951-4.736-10.58-5.954-4.63-1.223-12.258-1.839-25.43-1.839h-20.296v104.984h33.01zm73.552-25.443c0 5.037-.259 8.293-.767 9.615-.506 1.328-2.696 1.982-4.376 1.982-1.624 0-2.696-.605-3.253-1.926-.506-1.274-.814-4.226-.814-8.857v-27.733c0-4.787.252-7.739.714-8.96.508-1.169 1.575-1.779 3.15-1.779 1.68 0 3.914.716 4.481 2.037.556 1.372.864 4.274.864 8.703v26.918zm-35.456-79.541v104.984h24.519l1.728-6.668c2.186 2.698 4.628 4.68 7.321 6.057 2.702 1.321 6.666 1.982 9.765 1.982 4.276 0 8.036-1.118 11.14-3.409 3.155-2.236 5.142-4.936 5.956-7.991.865-3.102 1.272-7.783 1.272-14.045v-29.458c0-6.36-.105-10.486-.408-12.418-.259-1.933-1.123-3.921-2.493-5.959-1.426-2.031-3.407-3.608-6.056-4.731-2.696-1.118-5.795-1.68-9.412-1.68-3.099 0-7.118.618-9.814 1.89-2.644 1.218-5.086 3.1-7.272 5.596v-34.151h-26.246z" clip-rule="evenodd" fill="#fff" fill-rule="evenodd"/></svg>