<svg height="512" viewBox="0 0 512.6 512.6" width="512" xmlns="http://www.w3.org/2000/svg"><path d="M309.75 256c0 30.56-24.77 55.33-55.33 55.33s-55.33-24.77-55.33-55.33 24.77-55.34 55.33-55.34 55.33 24.78 55.33 55.34z"/><path d="M457.21 0H55.39C24.8 0 0 24.8 0 55.39v401.82c0 30.59 24.8 55.39 55.39 55.39h401.82c30.59 0 55.39-24.8 55.39-55.39V55.39C512.6 24.8 487.8 0 457.21 0zm-37.79 324.44c-.8 17.67-3.61 29.74-7.71 40.29-4.25 10.92-9.92 20.18-19.15 29.41-9.23 9.22-18.49 14.9-29.4 19.14-10.56 4.11-22.63 6.91-40.3 7.72-17.7.81-23.36 1-68.44 1s-50.74-.19-68.44-1c-17.67-.81-29.74-3.61-40.3-7.72-10.91-4.24-20.17-9.92-29.4-19.14-9.23-9.23-14.9-18.49-19.15-29.41-4.1-10.55-6.9-22.62-7.71-40.29-.81-17.71-1-23.36-1-68.44 0-45.09.19-50.74 1-68.44.81-17.67 3.61-29.74 7.71-40.3 4.25-10.91 9.92-20.17 19.15-29.4s18.49-14.91 29.4-19.15c10.56-4.1 22.63-6.91 40.3-7.71 17.7-.81 23.36-1 68.44-1s50.74.19 68.44 1c17.67.8 29.74 3.61 40.3 7.71 10.91 4.24 20.17 9.92 29.4 19.15s14.9 18.49 19.15 29.4c4.1 10.56 6.91 22.63 7.71 40.3.81 17.7 1 23.35 1 68.44 0 45.08-.19 50.73-1 68.44zM383.83 158.1c-3.01-7.75-6.61-13.28-12.42-19.09s-11.34-9.41-19.09-12.42c-5.85-2.27-14.64-4.98-30.82-5.71-17.51-.8-22.76-.97-67.08-.97s-49.57.17-67.08.97c-16.18.73-24.97 3.44-30.82 5.71-7.75 3.01-13.28 6.61-19.09 12.42s-9.41 11.34-12.42 19.09c-2.27 5.85-4.97 14.64-5.71 30.82-.8 17.5-.97 22.75-.97 67.08 0 44.32.17 49.57.97 67.08.74 16.18 3.44 24.97 5.71 30.82 3.01 7.75 6.61 13.28 12.42 19.09s11.34 9.4 19.09 12.41c5.85 2.28 14.64 4.98 30.82 5.72 17.5.8 22.75.97 67.08.97s49.58-.17 67.08-.97c16.18-.74 24.97-3.44 30.82-5.72 7.75-3.01 13.28-6.6 19.09-12.41s9.41-11.34 12.42-19.09c2.27-5.85 4.97-14.64 5.71-30.82.8-17.51.97-22.76.97-67.08 0-44.33-.17-49.58-.97-67.08-.74-16.18-3.44-24.97-5.71-30.82zM254.42 341.24c-47.08 0-85.24-38.16-85.24-85.24s38.16-85.25 85.24-85.25 85.24 38.17 85.24 85.25-38.16 85.24-85.24 85.24zm88.61-153.93c-11 0-19.92-8.92-19.92-19.92s8.92-19.92 19.92-19.92 19.92 8.92 19.92 19.92-8.92 19.92-19.92 19.92z"/></svg>