<svg height="94" width="94" xmlns="http://www.w3.org/2000/svg" viewBox="0 0 94 94"><path d="M89 0H5a5 5 0 0 0-5 5v84a5 5 0 0 0 5 5h84a5 5 0 0 0 5-5V5a5 5 0 0 0-5-5zM67.611 68.875c-15.605 0-21.019-7.036-23.904-15.786l-2.887-9.021c-2.164-6.585-4.689-11.727-12.629-11.727-5.504 0-11.094 3.969-11.094 15.064 0 8.659 4.42 14.073 10.643 14.073 7.037 0 11.729-5.232 11.729-5.232l2.887 7.848s-4.873 4.78-15.066 4.78c-12.627 0-19.664-7.396-19.664-21.108 0-14.251 7.037-22.642 20.297-22.642 11.998 0 18.043 4.33 21.83 16.057l2.978 9.02c2.164 6.585 5.953 11.367 15.063 11.367 6.136 0 9.379-1.354 9.379-4.691 0-2.616-1.53-4.51-6.131-5.593l-6.138-1.442c-7.483-1.804-10.463-5.684-10.463-11.817 0-9.833 7.939-12.9 16.058-12.9 9.203 0 14.795 3.338 15.517 11.457l-9.021 1.082c-.361-3.879-2.705-5.502-7.035-5.502-3.972 0-6.403 1.804-6.403 4.871 0 2.706 1.17 4.33 5.141 5.232l5.773 1.263c7.758 1.804 11.905 5.593 11.905 12.899-.001 9.021-7.577 12.448-18.765 12.448z"/></svg>