<svg xmlns="http://www.w3.org/2000/svg" viewBox="0 0 176 176" width="512" height="512"><g data-name="Layer 2"><path d="M159.67 0H16.33A16.33 16.33 0 0 0 0 16.33v143.34A16.33 16.33 0 0 0 16.33 176h143.34A16.33 16.33 0 0 0 176 159.67V16.33A16.33 16.33 0 0 0 159.67 0zM60 139.28a3.71 3.71 0 0 1-3.71 3.72H40.48a3.71 3.71 0 0 1-3.72-3.72V73a3.72 3.72 0 0 1 3.72-3.72h15.81A3.72 3.72 0 0 1 60 73zM48.38 63a15 15 0 1 1 15-15 15 15 0 0 1-15 15zm94.26 76.54a3.41 3.41 0 0 1-3.42 3.42h-17a3.41 3.41 0 0 1-3.42-3.42v-31.05c0-4.64 1.36-20.32-12.13-20.32-10.45 0-12.58 10.73-13 15.55v35.86A3.42 3.42 0 0 1 90.3 143H73.88a3.41 3.41 0 0 1-3.41-3.42V72.71a3.41 3.41 0 0 1 3.41-3.42H90.3a3.42 3.42 0 0 1 3.42 3.42v5.78c3.88-5.83 9.63-10.31 21.9-10.31 27.18 0 27 25.38 27 39.32z" data-name="10.linkedin"/></g></svg>