<svg viewBox="0 0 512 512" xmlns="http://www.w3.org/2000/svg" width="512" height="512"><circle cx="256" cy="256" r="256"/><path d="M280.917 256c0 61.006-49.118 110.461-109.709 110.461C110.618 366.461 61.5 317.006 61.5 256s49.118-110.461 109.709-110.461c60.59 0 109.708 49.455 109.708 110.461m120.353 0c0 57.427-24.559 103.98-54.854 103.98S291.562 313.427 291.562 256s24.559-103.98 54.854-103.98S401.27 198.573 401.27 256m49.23 0c0 51.452-8.638 93.162-19.293 93.162s-19.292-41.71-19.292-93.162 8.636-93.162 19.292-93.162c10.655 0 19.293 41.71 19.293 93.162" fill="#fff"/></svg>