<svg height="512" viewBox="0 0 512.599 512.599" width="512" xmlns="http://www.w3.org/2000/svg"><path d="M457.21 512.599H55.389C24.799 512.599 0 487.8 0 457.21V55.389C0 24.799 24.799 0 55.389 0h401.82c30.591 0 55.389 24.799 55.389 55.389v401.82c.001 30.591-24.798 55.39-55.388 55.39z"/><path d="M457.21 512.599H55.389C24.799 512.599 0 487.8 0 457.21V55.389C0 24.799 24.799 0 55.389 0h401.82c30.591 0 55.389 24.799 55.389 55.389v401.82c.001 30.591-24.798 55.39-55.388 55.39z"/><path d="M301.22 103.442c-63.225 0-114.663 51.485-114.663 114.772 0 63.096 51.438 114.428 114.663 114.428 63.029 0 114.306-51.333 114.306-114.428 0-63.287-51.276-114.772-114.306-114.772zM97.072 409.158h55.985V103.441H97.072z" clip-rule="evenodd" fill="#fff" fill-rule="evenodd"/></svg>