<svg xmlns="http://www.w3.org/2000/svg" viewBox="0 0 504 504" width="504" height="504"><path d="M377.6 0H126C56.8 0 0 56.8 0 126.4V378c0 69.2 56.8 126 126 126h251.6c69.6 0 126.4-56.8 126.4-126.4V126.4C504 56.8 447.2 0 377.6 0zM277.2 322c-20 0-39.2-10.4-45.6-22.4 0 0-10.8 41.6-13.2 49.6-8 28.4-32 56.8-33.6 59.2-1.2 1.6-4 1.2-4.4-1.2-.4-3.6-6.4-39.6.4-68.8 3.6-14.8 24-98.4 24-98.4s-6-11.6-6-28.4c0-26.8 16-46.8 36-46.8 16.8 0 25.2 12.4 25.2 27.2 0 16.4-10.8 41.2-16.4 64-4.8 19.2 10 34.8 29.6 34.8 35.2 0 59.2-44 59.2-96 0-39.6-27.6-69.2-77.6-69.2-56.4 0-92 40.8-92 86.4 0 15.6 4.8 26.8 12.4 35.6 3.6 4 4 5.6 2.8 10-.8 3.2-2.8 11.2-4 14.4-1.2 4.4-5.2 6.4-9.2 4.4-26-10.4-38-38-38-69.2 0-51.2 44.8-112.8 133.2-112.8 71.2 0 118 50 118 103.6-.4 71.2-40.8 124-100.8 124z"/></svg>