<svg height="512" viewBox="0 0 152 152" width="512" xmlns="http://www.w3.org/2000/svg"><g data-name="Layer 2"><g data-name="33.Reddit"><path d="M88.48 96.9a19.75 19.75 0 0 1-12.55 3.66 19.64 19.64 0 0 1-12.5-3.78 1.62 1.62 0 0 0-2.28 2.29A23.08 23.08 0 0 0 76 103.7a23.09 23.09 0 0 0 14.84-4.63 1.41 1.41 0 0 0 0-2.14 1.71 1.71 0 0 0-2.36-.03zm1.27-20.15A6.13 6.13 0 1 0 90 89c3.94 0 5.89-2.92 5.76-6.24a6 6 0 0 0-6.01-6.01z"/><path d="M76 0a76 76 0 1 0 76 76A76 76 0 0 0 76 0zm35.15 84.52a19.53 19.53 0 0 1 0 2.65c0 13.46-15.68 24.39-35 24.39s-35-10.94-35-24.39a19.53 19.53 0 0 1 0-2.65 8.28 8.28 0 0 1-2.36-1.58 8.77 8.77 0 0 1 12-12.78 43.08 43.08 0 0 1 23.41-7.39l4.43-20.84a1.86 1.86 0 0 1 2.22-1.42l14.72 2.94a6 6 0 1 1-.79 3.68l-12.85-2.74L78 63.13a42.7 42.7 0 0 1 23.13 7.39 8.71 8.71 0 1 1 10 14z"/><path d="M68 82.55a6 6 0 1 0-6 6 6 6 0 0 0 6-6z"/></g></g></svg>