<svg height="512" viewBox="0 0 152 152" width="512" xmlns="http://www.w3.org/2000/svg"><g data-name="Layer 2"><path d="M76 0a76 76 0 1 0 76 76A76 76 0 0 0 76 0zM47.87 116a11.88 11.88 0 0 1 0-23.75 11.88 11.88 0 0 1 0 23.75zm39.89 0H73.69c.06-.78.12-1.55.12-2.34a35.73 35.73 0 0 0-35.47-35.47c-.79 0-1.56.06-2.34.12V64.24c.78 0 1.55-.12 2.34-.12a49.82 49.82 0 0 1 49.54 49.54c0 .79-.09 1.56-.12 2.34zm28.12 0h-14.06c0-.78.12-1.55.12-2.34a63.89 63.89 0 0 0-63.6-63.6c-.79 0-1.56.09-2.34.12V36.12c.79 0 1.55-.12 2.34-.12A77.88 77.88 0 0 1 116 113.66c0 .79-.1 1.55-.12 2.34z" data-name="63.Rss"/></g></svg>