<svg height="512" viewBox="0 0 152 152" width="512" xmlns="http://www.w3.org/2000/svg"><g data-name="Layer 2"><path d="M76 0a76 76 0 1 0 76 76A76 76 0 0 0 76 0zM37.25 88.53a.32.32 0 0 1-.32.3.33.33 0 0 1-.32-.31L36 84.16l.58-4.44a.33.33 0 0 1 .32-.31.32.32 0 0 1 .32.31l.7 4.44zm3 2.65a.35.35 0 0 1-.34.32.34.34 0 0 1-.33-.32l-.79-7 .77-7.18a.35.35 0 0 1 .33-.33.36.36 0 0 1 .34.33l.89 7.18zm3.2 1.19a.4.4 0 0 1-.8 0l-.74-8.21.74-8.52a.4.4 0 0 1 .8 0l.85 8.52zm3.24.26a.49.49 0 0 1-.47.46.48.48 0 0 1-.47-.46L45 84.16l.71-8.75a.48.48 0 0 1 .49-.41.49.49 0 0 1 .47.46l.8 8.75zm3.26.07a.55.55 0 0 1-.54.52.54.54 0 0 1-.54-.52l-.66-8.54.64-8.16a.54.54 0 0 1 1.08 0l.75 8.12zm3.28 0a.61.61 0 0 1-1.21 0l-.62-8.53L52 71a.61.61 0 0 1 1.21 0l.71 13.22zm3.27 0a.7.7 0 0 1-.68.67.69.69 0 0 1-.67-.67l-.59-8.48.57-16.22a.69.69 0 0 1 .67-.67.7.7 0 0 1 .68.67l.66 16.23zm3.38-.13a.74.74 0 0 1-1.48 0l-.54-8.4.54-17.59a.74.74 0 0 1 1.48 0l.62 17.59zm3.37-.06a.81.81 0 0 1-1.62 0l-.51-8.34.49-18.17a.81.81 0 0 1 1.62 0l.56 18.18zm3.38-.07a.88.88 0 0 1-1.75 0l-.47-8.27.46-17.71a.89.89 0 0 1 .88-.87.87.87 0 0 1 .88.87l.53 17.71zm3.42 0a1 1 0 0 1-1.9 0l-.42-8.22.42-17.06a1 1 0 0 1 1.9 0l.47 17.07zm3.48-.87v.8a1.07 1.07 0 0 1-.3.72 1 1 0 0 1-1.55-.09 1 1 0 0 1-.24-.6l-.39-8.16.39-20.11v-.19a1 1 0 0 1 .47-.85.94.94 0 0 1 .55-.17A1 1 0 0 1 73 63a1 1 0 0 1 .46.84l.43 20.31zm3.38.7a1.08 1.08 0 0 1-2.16 0l-.22-4-.22-4.07.44-22V62a1.08 1.08 0 0 1 1.06-1 1.08 1.08 0 0 1 1.09 1l.48 22.16zm29.25 1.09H78.88a1.16 1.16 0 0 1-1.06-1.13V61c0-.57.21-.87 1-1.15a17.54 17.54 0 0 1 6.29-1.18 17.36 17.36 0 0 1 17.28 15.81 10 10 0 0 1 3.8-.76 9.81 9.81 0 1 1 0 19.62z" data-name="18.Soundcloud"/></g></svg>