<svg height="512" viewBox="0 0 176 176" width="512" xmlns="http://www.w3.org/2000/svg"><g data-name="Layer 2"><path d="M159.67 0H16.33A16.33 16.33 0 0 0 0 16.33v143.34A16.33 16.33 0 0 0 16.33 176h143.34A16.33 16.33 0 0 0 176 159.67V16.33A16.33 16.33 0 0 0 159.67 0zm-125 105.23a.46.46 0 0 1-.44.43.46.46 0 0 1-.44-.43l-.8-6 .8-6.1a.45.45 0 0 1 .44-.43.45.45 0 0 1 .44.43l1 6.11zm4.09 3.65a.48.48 0 0 1-.46.45.49.49 0 0 1-.46-.45l-1.08-9.66 1.08-9.88a.49.49 0 0 1 .46-.44.47.47 0 0 1 .46.44L40 99.22zm4.42 1.64a.58.58 0 0 1-.55.54.57.57 0 0 1-.56-.54l-1-11.29 1-11.72a.57.57 0 0 1 .56-.55.58.58 0 0 1 .55.55l1.16 11.72zm4.45.36a.65.65 0 0 1-1.3 0l-1-11.65 1-12a.65.65 0 0 1 1.3 0l1.1 12zm4.48.09a.74.74 0 0 1-1.47 0l-.92-11.74.92-11.18a.74.74 0 0 1 1.47 0l1 11.18zm4.52 0a.85.85 0 0 1-.83.83.87.87 0 0 1-.8-.8l-.85-11.75.85-18.19a.86.86 0 0 1 .84-.83.85.85 0 0 1 .83.82l1 18.18zm4.49 0a.93.93 0 0 1-1.85 0l-.8-11.67.81-22.3a.93.93 0 0 1 1.85 0L62 99.3zm4.66-.17a1 1 0 0 1-2 0L63 99.24 63.75 75a1 1 0 0 1 2 0l.85 24.2zm4.63-.08a1.11 1.11 0 0 1-2.22 0l-.7-11.48.7-25a1.11 1.11 0 0 1 2.22 0l.78 25zm4.66-.1a1.21 1.21 0 0 1-2.41 0L72 99.24l.63-24.37a1.22 1.22 0 0 1 1.21-1.2 1.21 1.21 0 0 1 1.21 1.2l.72 24.37zm4.7-.07a1.3 1.3 0 0 1-1.3 1.29 1.31 1.31 0 0 1-1.31-1.28l-.58-11.31.58-23.48a1.32 1.32 0 0 1 1.31-1.3 1.3 1.3 0 0 1 1.3 1.3l.66 23.49zm4.79-1.19v1.11a1.4 1.4 0 0 1-1.39 1.39 1.36 1.36 0 0 1-1.07-.51 1.28 1.28 0 0 1-.33-.82l-.54-11.24.53-27.67v-.32a1.37 1.37 0 0 1 .64-1.16 1.31 1.31 0 0 1 .76-.23 1.27 1.27 0 0 1 .76.24 1.42 1.42 0 0 1 .63 1.15l.58 28zm4.66 1a1.49 1.49 0 0 1-3 0l-.3-5.46-.31-5.6.61-30.32v-.16a1.49 1.49 0 0 1 .56-1.15 1.45 1.45 0 0 1 .93-.33 1.49 1.49 0 0 1 .76.2 1.58 1.58 0 0 1 .74 1.28l.66 30.48zm40.25 1.51H92a1.6 1.6 0 0 1-1.47-1.55v-43c0-.79.29-1.2 1.31-1.59a23.88 23.88 0 0 1 32.43 20.14A13.53 13.53 0 0 1 143 98.35a13.47 13.47 0 0 1-13.52 13.46z" data-name="22.soundcloud"/></g></svg>