<svg height="512" viewBox="0 0 176 176" width="512" xmlns="http://www.w3.org/2000/svg"><path d="M152 0H24A24 24 0 0 0 0 24v128a24 24 0 0 0 24 24h128a24 24 0 0 0 24-24V24a24 24 0 0 0-24-24zm-32.21 120.53a5.21 5.21 0 0 1-7.12 1.87c-13.69-8-29.5-9.28-40.36-9a100.22 100.22 0 0 0-20.93 2.76 5.21 5.21 0 0 1-2.76-10A108.5 108.5 0 0 1 71.7 103a102.33 102.33 0 0 1 22.24 1.61 75.11 75.11 0 0 1 24 8.76 5.2 5.2 0 0 1 1.85 7.16zm9.68-20.11a6.16 6.16 0 0 1-5.33 3.06 6.08 6.08 0 0 1-3.11-.85c-16.21-9.47-34.93-11-47.8-10.6a119.11 119.11 0 0 0-24.79 3.27 6.17 6.17 0 0 1-3.27-11.89 127.88 127.88 0 0 1 27.34-3.7 120 120 0 0 1 26.35 1.91A88.81 88.81 0 0 1 127.26 92a6.17 6.17 0 0 1 2.21 8.42zm12.49-22a7.56 7.56 0 0 1-6.53 3.75 7.48 7.48 0 0 1-3.82-1c-38.54-22.52-88.53-9.13-89-9a7.57 7.57 0 1 1-4-14.59A157.1 157.1 0 0 1 72.1 53a148.15 148.15 0 0 1 32.31 2.34A108.92 108.92 0 0 1 139.25 68 7.56 7.56 0 0 1 142 78.39z" data-name="Layer 2"/></svg>