<svg height="512" viewBox="0 0 176 176" width="512" xmlns="http://www.w3.org/2000/svg"><g data-name="Layer 2"><path d="M159.67 0H16.33A16.33 16.33 0 0 0 0 16.33v143.34A16.33 16.33 0 0 0 16.33 176h143.34A16.33 16.33 0 0 0 176 159.67V16.33A16.33 16.33 0 0 0 159.67 0zm-14.88 55.71a47.15 47.15 0 0 1-9.43 10.35 4.05 4.05 0 0 0-1.51 3.15v.36a66.06 66.06 0 0 1-4.26 23 67.31 67.31 0 0 1-12.53 21 61.76 61.76 0 0 1-20.44 15.32 59.86 59.86 0 0 1-6.62 2.54 68 68 0 0 1-21.34 3.32A65.13 65.13 0 0 1 36 125.93a1.87 1.87 0 0 1-.89-2.08 1.81 1.81 0 0 1 1.77-1.36h2.74a43.81 43.81 0 0 0 24.52-7.44 23.81 23.81 0 0 1-18.83-16.17 1.24 1.24 0 0 1 1.41-1.6 21.59 21.59 0 0 0 4 .38h.5a23.78 23.78 0 0 1-13.85-21.88 1.24 1.24 0 0 1 1.85-1.07 21 21 0 0 0 5.4 2.09A23.75 23.75 0 0 1 40.77 48a1.24 1.24 0 0 1 2-.16 62.15 62.15 0 0 0 42.77 22.81h.09a.88.88 0 0 0 .65-.3.86.86 0 0 0 .21-.66 25.59 25.59 0 0 1 .56-8.69 22.62 22.62 0 0 1 3-7 23 23 0 0 1 12.54-9.6 25.33 25.33 0 0 1 7.51-1.16 23.69 23.69 0 0 1 15.69 5.92 3.09 3.09 0 0 0 2 .78 3 3 0 0 0 .72-.1 44 44 0 0 0 11.59-4.78 1.24 1.24 0 0 1 1.82 1.44 23.59 23.59 0 0 1-6.24 9.94 43.07 43.07 0 0 0 7.58-2.56 1.24 1.24 0 0 1 1.53 1.83z" data-name="04.twitter"/></g></svg>