<svg height="97.75" width="97.75" xmlns="http://www.w3.org/2000/svg" viewBox="0 0 97.75 97.75"><path d="M48.875 0C21.883 0 0 21.882 0 48.875S21.883 97.75 48.875 97.75 97.75 75.868 97.75 48.875 75.867 0 48.875 0zm34.553 32.795c-.306 6.734-5.014 15.959-14.109 27.666-9.402 12.229-17.36 18.344-23.873 18.344-4.029 0-7.44-3.723-10.229-11.173-1.861-6.827-3.724-13.651-5.584-20.479-2.067-7.446-4.287-11.174-6.663-11.174-.516 0-2.33 1.091-5.431 3.261l-3.252-4.195c3.411-2.997 6.78-6 10.093-9.006 4.555-3.933 7.971-6.004 10.252-6.214 5.383-.517 8.697 3.167 9.941 11.044 1.344 8.504 2.273 13.793 2.795 15.861 1.551 7.055 3.26 10.579 5.122 10.579 1.449 0 3.627-2.291 6.525-6.863 2.896-4.577 4.448-8.061 4.657-10.448.413-3.951-1.14-5.93-4.657-5.93-1.658 0-3.367.378-5.121 1.135 3.399-11.138 9.895-16.551 19.484-16.245 7.11.209 10.459 4.821 10.05 13.837z"/></svg>