<svg height="512" viewBox="0 0 176 176" width="512" xmlns="http://www.w3.org/2000/svg"><g data-name="Layer 2"><path d="M159.67 0H16.33A16.33 16.33 0 0 0 0 16.33v143.34A16.33 16.33 0 0 0 16.33 176h143.34A16.33 16.33 0 0 0 176 159.67V16.33A16.33 16.33 0 0 0 159.67 0zM143 64.49c-.47 10.37-7.87 24.62-21.68 42.59C107.86 124.53 97.12 133.12 88 135a18.75 18.75 0 0 1-3.68.37c-9.47 0-18.69-26.52-24.77-48.78-3.18-11.46-5.86-16.27-8.94-16.12-2.84.09-6.61 2.76-10.61 5.59l-.12.1a2.93 2.93 0 0 1-4-.6l-2.28-2.94a3 3 0 0 1 .4-4L35.91 67C48.2 56.29 63.17 44 69.88 44c8.81 0 10.17 4.82 12.88 14.41.13.46 2.53 11.07 5.24 21.62s5.76 21.17 7.07 21.17c.79 0 3.53-3.5 8.48-11.27 4.07-6.4 7.35-12.43 8-14.69.75-2.67.62-4.72-.42-6.08-1.35-1.75-4.06-2.16-6.13-2.16a17.48 17.48 0 0 0-4.67.66 2.24 2.24 0 0 1-2.69-2.94c5.5-15.07 15.36-22.5 29.31-22 4.94.15 8.79 1.67 11.45 4.55 3.39 3.59 4.91 9.39 4.6 17.22z" data-name="06.vimeo"/></g></svg>