<svg xmlns="http://www.w3.org/2000/svg" width="512" height="512" viewBox="0 0 512 512"><path d="M476.07 35.93C440.14 0 382.32 0 266.67 0h-21.34C129.68 0 71.86 0 35.93 35.93 0 71.86 0 129.68 0 245.33v21.34c0 115.65 0 173.47 35.93 209.4S129.68 512 245.33 512h21.34c115.65 0 173.47 0 209.4-35.93S512 382.32 512 266.67v-21.34c0-115.65 0-173.47-35.93-209.4zm-60 326.74h-37.34c-14.24 0-18.41-11.36-43.73-36.67-22.16-21.36-31.65-24.13-37.19-24.13-7.52 0-9.77 2.13-9.77 12.8v33.48c0 9.18-2.93 14.52-26.67 14.52-39.56 0-83.04-24.02-113.89-68.31-46.29-64.87-58.95-113.91-58.95-123.8 0-5.54 2.14-10.56 12.8-10.56h37.35c9.54 0 13.13 4.18 16.71 14.51 18.26 53.19 49.06 99.68 61.72 99.68 4.74 0 6.92-2.19 6.92-14.24v-54.98c-1.39-25.31-14.84-27.39-14.84-36.39 0-4.17 3.57-8.58 9.5-8.58h58.68c7.92 0 10.67 4.23 10.67 13.72v73.97c0 7.9 3.44 10.67 5.81 10.67 4.75 0 8.71-2.77 17.41-11.47 26.9-30.06 45.89-76.33 45.89-76.33 2.38-5.54 6.75-10.56 16.25-10.56h37.34c11.29 0 13.67 5.81 11.29 13.72-4.75 21.76-50.24 85.83-50.24 85.83-3.96 6.33-5.54 9.49 0 16.61 3.96 5.54 17.01 16.61 25.71 26.9 16.04 18.04 28.13 33.26 31.5 43.75 3.08 10.52-2.26 15.86-12.93 15.86z"/></svg>