<svg height="512" viewBox="0 0 512.6 512.6" width="512" xmlns="http://www.w3.org/2000/svg"><path d="m219.02 201.42 94.97 54.03-94.97 54.02z"/><path d="M457.21 0H55.39C24.8 0 0 24.8 0 55.39v401.82c0 30.59 24.8 55.39 55.39 55.39h401.82c30.59 0 55.39-24.8 55.39-55.39V55.39C512.6 24.8 487.8 0 457.21 0zm-26.95 343.47c-4.17 15.74-16.49 28.13-32.12 32.33-28.34 7.65-141.96 7.65-141.96 7.65s-113.62 0-141.96-7.65c-15.63-4.2-27.95-16.59-32.12-32.33-7.6-28.52-7.6-88.02-7.6-88.02s0-59.51 7.6-88.03c4.17-15.73 16.49-28.13 32.12-32.33 28.34-7.64 141.96-7.64 141.96-7.64s113.62 0 141.96 7.64c15.63 4.2 27.95 16.6 32.12 32.33 7.6 28.52 7.6 88.03 7.6 88.03s0 59.5-7.6 88.02z"/></svg>